<!DOCTYPE svg PUBLIC "-//W3C//DTD SVG 1.1//EN" "http://www.w3.org/Graphics/SVG/1.1/DTD/svg11.dtd">

<!-- Uploaded to: SVG Repo, www.svgrepo.com, Transformed by: SVG Repo Mixer Tools -->
<svg fill="#000000" height="256px" id="Layer_1"
     stroke="#000000" stroke-width="5.631824" transform="rotate(0)" version="1.1" viewBox="-51.2 -51.2 614.38 614.38"
     width="256px" xml:space="preserve" xmlns="http://www.w3.org/2000/svg">

<g id="SVGRepo_bgCarrier" stroke-width="0"/>

  <g id="SVGRepo_tracerCarrier" stroke-linecap="round" stroke-linejoin="round"/>

  <g id="SVGRepo_iconCarrier"> <polygon points="437.319,106.669 74.674,106.669 117.329,511.984 394.665,511.984 "
                                        style="fill:#E6E9ED;"/>
    <polygon points="409.258,373.317 422.726,245.321 89.268,245.321 102.736,373.317 " style="fill:#DA4453;"/>
    <polygon points="383.993,0 128.001,0 96.002,53.326 415.992,53.326 " style="fill:#7F4545;"/>
    <polygon points="426.663,31.999 85.33,31.999 74.674,85.325 437.319,85.325 " style="fill:#965353;"/>
    <rect height="63.998" style="fill:#A85D5D;" width="405.33" x="53.327" y="64.002"/>
    <path
      d="M362.665,309.319c0,58.92-47.748,106.668-106.668,106.668s-106.669-47.748-106.669-106.668 c0-58.905,47.749-106.653,106.669-106.653S362.665,250.414,362.665,309.319z"
      style="fill:#ED5564;"/>
    <path
      d="M309.323,309.319c0,35.357-23.874,63.998-53.326,63.998s-53.327-28.641-53.327-63.998 c0-35.343,23.875-63.999,53.327-63.999S309.323,273.976,309.323,309.319z"
      style="fill:#965353;"/>
    <path
      d="M255.997,245.321c-5.25,0-10.312,0.922-15.109,2.609c-1.75,4.921-3.594,10.828-4.922,17.14 c-6.452,30.608,3.891,45.64,13.719,52.842c14.078,10.344,3.641,41.702-2.25,54.593c2.797,0.531,5.641,0.812,8.562,0.812 c5.25,0,10.312-0.906,15.109-2.609c1.75-4.906,3.594-10.812,4.922-17.141c6.452-30.593-3.891-45.623-13.703-52.842 c-14.078-10.328-3.656-41.687,2.234-54.577C261.763,245.617,258.919,245.321,255.997,245.321z"
      style="fill:#7F4545;"/>
    <path
      d="M227.123,39.546c2.078,2.078,4.812,3.125,7.546,3.125l0,0h42.656l0,0 c2.733,0,5.468-1.047,7.546-3.125c2.078-2.094,3.125-4.812,3.125-7.547h-63.998C223.998,34.733,225.045,37.452,227.123,39.546z"
      style="fill:#434A54;"/> </g>

</svg>
